<svg width="597" height="398" viewBox="0 0 597 398" fill="none" xmlns="http://www.w3.org/2000/svg">
<path fill-rule="evenodd" clip-rule="evenodd" d="M379.848 393.703H4.22775C1.89317 393.703 -0.000427246 391.721 -0.000427246 389.279C-0.000427246 386.836 1.89317 384.856 4.22775 384.856H379.848C382.183 384.856 384.077 386.836 384.077 389.279C384.077 391.721 382.183 393.703 379.848 393.703Z" fill="#FFCA00"/>
<path fill-rule="evenodd" clip-rule="evenodd" d="M592.736 393.703H406.441C404.11 393.703 402.218 391.721 402.218 389.279C402.218 386.836 404.11 384.856 406.441 384.856H592.736C595.069 384.856 596.959 386.836 596.959 389.279C596.959 391.721 595.069 393.703 592.736 393.703Z" fill="#FFCA00"/>
<path fill-rule="evenodd" clip-rule="evenodd" d="M424.67 0H396.332C376.818 0 361 15.7498 361 35.0558C361 50.4067 371.003 63.5361 384.91 68.2348V78L393.805 70.1143C394.64 70.1711 395.48 70.3117 396.332 70.3117H424.67C444.18 70.3117 460 54.4618 460 35.1558C460 15.8499 444.18 0 424.67 0Z" fill="white"/>
<path fill-rule="evenodd" clip-rule="evenodd" d="M355 137.506L365.784 119L380 125.324V169.875C380 173.359 378.175 176.6 375.169 178.447C368.324 182.656 355 177.814 355 169.875V137.506Z" fill="#FFCA00"/>
<path fill-rule="evenodd" clip-rule="evenodd" d="M292.291 377L288 386H315C314.173 382.637 310.993 380.469 307.657 380.992L304.419 381.501C302.163 381.501 300.632 379.141 301.499 377H292.291Z" fill="white"/>
<path fill-rule="evenodd" clip-rule="evenodd" d="M324.292 377L320 386H347C346.173 382.637 342.994 380.469 339.656 380.992L336.42 381.501C334.165 381.501 332.634 379.141 333.5 377H324.292Z" fill="white"/>
<path fill-rule="evenodd" clip-rule="evenodd" d="M390.098 125.893C392.679 119.265 389.648 109.267 381.924 103.803C374.474 98.5337 364.45 98.7594 357.247 104.359L356.058 105.283C351.365 108.93 348.468 114.419 348.109 120.348L347.662 139.456L340 143.604L346.483 166L352.964 157.756L363.318 144.961L371.802 147.486C377.089 149.355 382.904 146.628 384.852 141.373L384.882 141.29L386.506 136.911L390.098 125.893Z" fill="#FBEFE1"/>
<path fill-rule="evenodd" clip-rule="evenodd" d="M392.143 119.446L392.967 119.168C393.624 107.016 384.459 96.4737 372.076 95.1408C358.077 93.6346 345.849 104.404 346.001 118.162C346.051 122.732 347.308 135 347.308 135L360.465 119.003L361.916 119.488C371.716 122.762 382.353 122.747 392.143 119.446Z" fill="#FFCA00"/>
<path fill-rule="evenodd" clip-rule="evenodd" d="M292.984 378L289.534 348.378C288.13 337.454 288.496 316.585 290.617 305.778L293.062 293.307L288.473 262.413C287.233 254.066 288.444 245.537 291.959 237.866L296.072 226H342.834L342.43 228.269C340.605 238.525 340.867 251.931 343.201 262.083L350.271 288.82C351.199 292.329 351.242 296.012 350.395 299.542L334.076 378H324.894L324.204 349.095C323.587 330.15 331.214 295.574 331.214 295.574L316.965 260.207L302.167 378H292.984Z" fill="#FA7564"/>
<path fill-rule="evenodd" clip-rule="evenodd" d="M320.766 226H342.602L342.187 228.269C340.311 238.525 340.58 251.931 342.979 262.083L350.25 288.82C351.205 292.329 351.248 296.012 350.378 299.542L333.597 378H324.154L323.444 349.093C322.81 330.15 330.653 295.574 330.653 295.574L316 260.207L320.766 226Z" fill="#FD8778"/>
<path fill-rule="evenodd" clip-rule="evenodd" d="M387.351 160.677L372.26 192.406L368.751 160.814L357.066 152.195L352.442 158.124L339.5 144.22H320.508V144C302.84 164.729 294.399 191.288 295.071 218.594L295 225.636H327.934L352.167 246L361.142 238.008L345.635 214.8L352.442 196.752L359.171 188.163L369.095 216.292L385.431 212.859L399 163.608L387.351 160.677Z" fill="#1E389D"/>
<path fill-rule="evenodd" clip-rule="evenodd" d="M399.364 163C401.184 161.518 402.62 159.579 403.544 157.364L404.847 154.231C405.379 152.014 404.495 149.689 402.654 148.47L397.024 144.734L399.383 136.641C399.729 135.451 398.992 134.214 397.821 134.024C396.997 133.89 396.186 134.321 395.801 135.096L391.162 144.404L390.703 145.166C389.79 146.69 389.093 148.347 388.637 150.082C388.065 152.255 387.876 154.519 388.079 156.763L388.383 160.092L399.364 163Z" fill="#FBEFE1"/>
<path fill-rule="evenodd" clip-rule="evenodd" d="M550.377 371.849H520.451V314.603H548.669L557.671 232.739C559.513 220.155 553.503 207.659 542.487 201.255C532.714 195.574 520.294 195.574 510.548 201.304L494.485 210.526V291.285L472 314.603H509.518V371.849H479.624C475.529 371.849 472.21 375.055 472.21 379.138C472.21 383.222 475.529 386.766 479.624 386.766C483.575 386.766 486.796 382.753 487.016 380.027H507.607C507.827 382.753 511.049 387 515 387C518.953 387 522.173 382.753 522.392 380.027H542.985C543.205 382.753 546.425 386.712 550.377 386.712C554.472 386.712 557.791 383.365 557.791 379.281C557.791 375.198 554.472 371.849 550.377 371.849Z" fill="black"/>
<path fill-rule="evenodd" clip-rule="evenodd" d="M465.709 377L470 386H443C443.827 382.637 447.006 380.469 450.343 380.992L453.581 381.501C455.836 381.501 457.366 379.141 456.501 377H465.709Z" fill="white"/>
<path fill-rule="evenodd" clip-rule="evenodd" d="M440.708 377L445 386H418C418.829 382.637 422.006 380.469 425.344 380.992L428.58 381.501C430.835 381.501 432.366 379.141 431.5 377H440.708Z" fill="white"/>
<path fill-rule="evenodd" clip-rule="evenodd" d="M444.113 379L459.345 313.758L488.715 299.007H506.539L521 277L484.68 281L446.283 295.709C442.269 297.246 439.371 300.766 438.657 304.972L427 379H444.113Z" fill="#1E389D"/>
<path fill-rule="evenodd" clip-rule="evenodd" d="M495.547 281.304L464.876 297.276C461.23 299.176 458.797 302.767 458.407 306.828L452 379H468L482.035 308.007L521.141 299.008C531.556 299.008 540 290.647 540 280.335V277L495.547 281.304Z" fill="#212293"/>
<path fill-rule="evenodd" clip-rule="evenodd" d="M494.126 202.344H524.281C532.143 202.344 539.395 206.602 543.273 213.493L563 242.985V289H549V248.694L538.999 237.946V280.939H485.001L489.566 226.13L467.91 246.428C463.192 251.28 455.144 250.062 452.049 244.027L433 206.898L442.503 201L459.333 228.541L478.589 208.888C482.691 204.702 488.286 202.344 494.126 202.344Z" fill="#FA7564"/>
<path fill-rule="evenodd" clip-rule="evenodd" d="M486.272 164.904C486.156 157.675 492.404 149.207 501.445 146.718C510.164 144.318 519.385 148.068 524.142 155.947L524.926 157.246C528.026 162.379 528.826 168.635 527.123 174.416L521.153 192.52L520.739 203.253L510.477 207L503.528 203.253L503.923 191.69L496.005 191.667C490.457 191.586 486.003 186.937 486.003 181.238V181.148L486 173.473L486.272 164.904Z" fill="#FBEFE1"/>
<path fill-rule="evenodd" clip-rule="evenodd" d="M513 193V175H486L486.001 180.363V180.449C486.001 185.84 490.482 190.24 496.063 190.316L504.028 190.338L503.931 193H513Z" fill="black"/>
<path fill-rule="evenodd" clip-rule="evenodd" d="M515.245 160.988C515.245 160.988 490.076 161.377 484 148.468C484 148.468 499.07 138.11 515.137 141.791C528.826 145.201 536.482 159.764 531.444 172.904C529.77 177.269 526.889 184.595 523.674 190V173.888L515.451 172.347L514.142 175.891H510.282L515.245 160.988Z" fill="black"/>
<path fill-rule="evenodd" clip-rule="evenodd" d="M549 310C547.894 310 547 309.019 547 307.809V298.204L551 295V307.809C551 309.019 550.104 310 549 310Z" fill="#FBEFE1"/>
<path fill-rule="evenodd" clip-rule="evenodd" d="M553.063 311C552.001 311 551.137 310.09 551.126 308.96L551 295H554.874L555 308.92C555.01 310.065 554.141 311 553.063 311Z" fill="#FBEFE1"/>
<path fill-rule="evenodd" clip-rule="evenodd" d="M558.999 310C557.895 310 557 309.019 557 307.809V295H561V307.809C561 309.019 560.105 310 558.999 310Z" fill="#FBEFE1"/>
<path fill-rule="evenodd" clip-rule="evenodd" d="M562.645 304H561.355C560.606 304 560 303.331 560 302.504V295H564V302.504C564 303.331 563.394 304 562.645 304Z" fill="#FBEFE1"/>
<path fill-rule="evenodd" clip-rule="evenodd" d="M564 296.308V292.027L562.397 288.278L551.329 288L551.152 288.169C548.506 290.698 547.317 294.233 547.317 297.969L547 298L564 296.308Z" fill="#FBEFE1"/>
<path fill-rule="evenodd" clip-rule="evenodd" d="M593 271H520.161H332V283.29H344.296L334.661 398H339.319L364.413 283.29H375.162L366.635 385.71H370.688L392.833 283.29H491.136L516.229 398H520.889L511.255 283.29H520.161H559.626L581.772 385.71H585.825L577.298 283.29H593V271Z" fill="white"/>
<path fill-rule="evenodd" clip-rule="evenodd" d="M116.371 371.852H86.4454V314.62H124L101.493 291.307V210.566L85.4139 201.318C75.6586 195.589 63.3916 195.559 53.609 201.239C42.5814 207.642 36.4828 220.194 38.3256 232.774L47.2546 314.62H75.5013V371.852H45.5446C41.446 371.852 38.1231 375.057 38.1231 379.14C38.1231 383.223 41.446 386.766 45.5446 386.766C49.5008 386.766 52.7239 382.754 52.9441 380.029H73.5573C73.7776 382.754 77.002 387 80.9569 387C84.9132 387 88.1376 382.754 88.3565 380.029H108.971C109.19 382.754 112.414 386.712 116.371 386.712C120.469 386.712 123.792 383.366 123.792 379.283C123.792 375.201 120.469 371.852 116.371 371.852Z" fill="black"/>
<path fill-rule="evenodd" clip-rule="evenodd" d="M130.292 377L126 386H153C152.173 382.637 148.993 380.469 145.656 380.992L142.42 381.501C140.163 381.501 138.633 379.141 139.5 377H130.292Z" fill="black"/>
<path fill-rule="evenodd" clip-rule="evenodd" d="M155.292 377L151 386H178C177.173 382.637 173.993 380.469 170.656 380.992L167.42 381.501C165.163 381.501 163.633 379.141 164.5 377H155.292Z" fill="black"/>
<path fill-rule="evenodd" clip-rule="evenodd" d="M151.888 379L136.655 313.758L107.284 299.007H89.46L75 277L111.32 281L149.718 295.709C153.731 297.246 156.629 300.766 157.344 304.972L169 379H151.888Z" fill="#1E389D"/>
<path fill-rule="evenodd" clip-rule="evenodd" d="M99.4538 281.304L130.124 297.276C133.771 299.176 136.204 302.767 136.593 306.828L143 379H127L112.966 308.007L73.8584 299.008C63.4428 299.008 55 290.647 55 280.335V277L99.4538 281.304Z" fill="#212293"/>
<path fill-rule="evenodd" clip-rule="evenodd" d="M101.108 202.328H70.5742C62.6136 202.328 55.269 206.536 51.3435 213.346L28.6429 246.942C25.2978 251.893 27.2543 258.612 32.7577 261.069L64.3657 275.181L70.4151 261.542L49.5996 252.58C47.5278 251.687 46.8404 249.128 48.196 247.345L55.6696 237.512V280H110.347L105.725 225.835L127.652 245.894C132.429 250.69 140.578 249.486 143.712 243.522L163 206.829L153.378 201L136.337 228.218L116.839 208.795C112.685 204.657 107.02 202.328 101.108 202.328Z" fill="#FA7564"/>
<path fill-rule="evenodd" clip-rule="evenodd" d="M107.727 164.904C107.842 157.675 101.596 149.207 92.5541 146.718C83.8349 144.318 74.615 148.068 69.8577 155.947L69.0729 157.246C65.974 162.379 65.1744 168.635 66.8773 174.416L72.8462 192.52L73.2594 203.253L83.5213 207L90.4702 203.253L90.0771 191.69L97.9953 191.667C103.541 191.586 107.997 186.937 107.997 181.238V181.148L108 173.473L107.727 164.904Z" fill="#FBEFE1"/>
<path fill-rule="evenodd" clip-rule="evenodd" d="M112 144.711C112 144.711 96.1616 137.36 80.4307 141.023C77.5691 141.747 74.9971 143.001 72.738 144.615L69.4969 140.921V147.404C63.4879 153.671 61.203 163.146 64.5379 171.986C66.1769 176.33 69.4969 183.621 72.2171 189V172.966L80.1954 171.431L80.3613 160.128C80.3613 160.128 95.3619 160.94 104.706 154.401L107.784 160.727C107.784 160.727 105.71 148.674 112 144.711Z" fill="black"/>
<path fill-rule="evenodd" clip-rule="evenodd" d="M76 256C76 254.896 75.0189 254 73.809 254H64.2036L61 258H73.809C75.0189 258 76 257.104 76 256Z" fill="#FBEFE1"/>
<path fill-rule="evenodd" clip-rule="evenodd" d="M77 261.063C77 260.001 76.0894 259.137 74.9599 259.126L61 259V262.874L74.9213 263C76.065 263.01 77 262.141 77 261.063Z" fill="#FBEFE1"/>
<path fill-rule="evenodd" clip-rule="evenodd" d="M76 265.999C76 264.895 75.0189 264 73.809 264H61V268H73.809C75.0189 268 76 267.105 76 265.999Z" fill="#FBEFE1"/>
<path fill-rule="evenodd" clip-rule="evenodd" d="M85 273.645V272.355C85 271.606 84.3304 271 83.5048 271H76V275H83.5048C84.3304 275 85 274.394 85 273.645Z" fill="#FF63BE"/>
<path fill-rule="evenodd" clip-rule="evenodd" d="M63.3069 271H59.0268L55.2777 269.397L55 258.329L55.1693 258.152C57.6981 255.506 61.2319 254.317 64.9688 254.317L65 254L63.3069 271Z" fill="#FBEFE1"/>
<path fill-rule="evenodd" clip-rule="evenodd" d="M263 271H74.8381H2V283.29H17.7024L9.17545 385.71H13.2285L35.3725 283.29H74.8381H83.7463L74.1112 398H78.7709L103.864 283.29H202.168L224.312 385.71H228.365L219.838 283.29H230.587L255.68 398H260.339L250.704 283.29H263V271Z" fill="white"/>
<path fill-rule="evenodd" clip-rule="evenodd" d="M136.571 256H240.889C244.493 256 247.596 253.47 248.309 249.951L260.848 188.033C261.793 183.362 258.21 179 253.428 179H149.11C145.507 179 142.403 181.53 141.69 185.049L129.152 246.968C128.206 251.638 131.789 256 136.571 256Z" fill="white"/>
<path fill-rule="evenodd" clip-rule="evenodd" d="M212.834 224H181.013L194.034 257.94C195.425 261.564 192.781 265.471 188.937 265.471H169V271H214.304C222.591 271 228.244 262.516 225.135 254.746L212.834 224Z" fill="#B3D2EC"/>
<path fill-rule="evenodd" clip-rule="evenodd" d="M479.155 42H445.845C424.391 42 407 58.9116 407 80.1595V80.049C407 101.298 424.391 118.412 445.845 118.412H479.155C479.885 118.412 480.61 118.342 481.33 118.303L491.052 127V116.474C506.684 111.497 518 96.9824 518 79.8457V80.1595C518 58.9116 500.607 42 479.155 42Z" fill="#FFCA00"/>
<path fill-rule="evenodd" clip-rule="evenodd" d="M457.429 256H353.111C349.508 256 346.404 253.47 345.691 249.951L333.152 188.033C332.207 183.362 335.79 179 340.571 179H444.891C448.493 179 451.597 181.53 452.31 185.049L464.848 246.968C465.794 251.638 462.211 256 457.429 256Z" fill="white"/>
<path fill-rule="evenodd" clip-rule="evenodd" d="M382.016 224H413.475L400.602 257.94C399.227 261.564 401.841 265.471 405.641 265.471H424V271H380.562C372.37 271 366.783 262.516 369.855 254.746L382.016 224Z" fill="#B3D2EC"/>
</svg>
