<svg xmlns="http://www.w3.org/2000/svg" width="36" height="36" viewBox="0 0 36 36">
  <metadata><?xpacket begin="﻿" id="W5M0MpCehiHzreSzNTczkc9d"?>
<x:xmpmeta xmlns:x="adobe:ns:meta/" x:xmptk="Adobe XMP Core 5.6-c140 79.160451, 2017/05/06-01:08:21        ">
   <rdf:RDF xmlns:rdf="http://www.w3.org/1999/02/22-rdf-syntax-ns#">
      <rdf:Description rdf:about=""/>
   </rdf:RDF>
</x:xmpmeta>
                                                                                                    
                                                                                                    
                                                                                                    
                                                                                                    
                                                                                                    
                                                                                                    
                                                                                                    
                                                                                                    
                                                                                                    
                                                                                                    
                                                                                                    
                                                                                                    
                                                                                                    
                                                                                                    
                                                                                                    
                                                                                                    
                                                                                                    
                                                                                                    
                                                                                                    
                                                                                                    
                           
<?xpacket end="w"?></metadata>
<defs>
    <style>
      .cls-1 {
        fill: #395e66;
        fill-rule: evenodd;
      }
    </style>
  </defs>
  <path id="Shape_33_copy" data-name="Shape 33 copy" class="cls-1" d="M733,824h4v-4h-4v4Zm0,8h4v-4h-4v4Zm4,8v-4h-4A4,4,0,0,0,737,840Zm-4-24h4v-4h-4v4Zm24,24h4v-4h-4v4Zm8-36H745a4,4,0,0,0-4,4v20a4,4,0,0,0,4,4h20a4,4,0,0,0,4-4V808A4,4,0,0,0,765,804Zm0,24H745V808h20v20Zm-16,12h4v-4h-4v4Zm-8,0h4v-4h-4v4Z" transform="translate(-733 -804)"/>
</svg>
