<svg id="play_btn_copy" data-name="play btn copy" xmlns="http://www.w3.org/2000/svg" width="105.876" height="105.85" viewBox="0 0 105.876 105.85">
  <metadata><?xpacket begin="﻿" id="W5M0MpCehiHzreSzNTczkc9d"?>
<x:xmpmeta xmlns:x="adobe:ns:meta/" x:xmptk="Adobe XMP Core 5.6-c140 79.160451, 2017/05/06-01:08:21        ">
   <rdf:RDF xmlns:rdf="http://www.w3.org/1999/02/22-rdf-syntax-ns#">
      <rdf:Description rdf:about=""/>
   </rdf:RDF>
</x:xmpmeta>
                                                                                                    
                                                                                                    
                                                                                                    
                                                                                                    
                                                                                                    
                                                                                                    
                                                                                                    
                                                                                                    
                                                                                                    
                                                                                                    
                                                                                                    
                                                                                                    
                                                                                                    
                                                                                                    
                                                                                                    
                                                                                                    
                                                                                                    
                                                                                                    
                                                                                                    
                                                                                                    
                           
<?xpacket end="w"?></metadata>
<defs>
    <style>
      .cls-1, .cls-2 {
        fill-opacity: 0;
        stroke-linejoin: round;
        stroke-width: 2px;
        fill-rule: evenodd;
      }

      .cls-1 {
        stroke: #454546;
      }

      .cls-2 {
        fill: #4a4a4b;
        stroke: #4a4a4b;
      }
    </style>
  </defs>
  <path class="cls-1" d="M762.453,1602.72c-6.457,7.6-17.026,7.61-23.488.01l-4.061-4.77a272.933,272.933,0,0,0-25.547-25.57l-5.1-4.34c-7.589-6.47-7.584-17.05.012-23.51l4.709-4a271,271,0,0,0,25.555-25.56l4.005-4.71c6.46-7.59,17.034-7.6,23.5,0l4.2,4.93a274.265,274.265,0,0,0,25.557,25.56l4.936,4.2c7.592,6.47,7.591,17.04,0,23.51l-4.87,4.14a271,271,0,0,0-25.545,25.57Zm0,0c-6.457,7.6-17.026,7.61-23.488.01l-4.061-4.77a272.933,272.933,0,0,0-25.547-25.57l-5.1-4.34c-7.589-6.47-7.584-17.05.012-23.51l4.709-4a271,271,0,0,0,25.555-25.56l4.005-4.71c6.46-7.59,17.034-7.6,23.5,0l4.2,4.93a274.265,274.265,0,0,0,25.557,25.56l4.936,4.2c7.592,6.47,7.591,17.04,0,23.51l-4.87,4.14a271,271,0,0,0-25.545,25.57Z" transform="translate(-697.562 -1503.59)"/>
  <path class="cls-2" d="M761.684,1559.24l-16.044,10.8a2.968,2.968,0,0,1-3.062.16,2.984,2.984,0,0,1-1.578-2.63v-21.59a2.976,2.976,0,0,1,4.64-2.47l16.044,10.79A2.976,2.976,0,0,1,761.684,1559.24Z" transform="translate(-697.562 -1503.59)"/>
</svg>
